<svg width="162" height="39" viewBox="0 0 162 39" fill="none" xmlns="http://www.w3.org/2000/svg">
<g clip-path="url(#clip0_2_12)">
<path d="M87.7668 12C87.7668 7.21743 87.7668 4.82615 89.0475 3.10149C89.6282 2.31942 90.3826 1.6505 91.2646 1.13557C93.2096 0 95.9066 0 101.3 0C106.694 0 109.391 0 111.336 1.13557C112.218 1.6505 112.972 2.31942 113.553 3.10149C114.834 4.82615 114.834 7.21743 114.834 12C114.834 16.7825 114.834 19.1739 113.553 20.8985C112.972 21.6806 112.218 22.3495 111.336 22.8644C109.391 24 106.694 24 101.3 24C95.9066 24 93.2096 24 91.2646 22.8644C90.3826 22.3495 89.6282 21.6806 89.0475 20.8985C87.7668 19.1739 87.7668 16.7825 87.7668 12Z" fill="#FFE033"/>
<path d="M108.483 16.8088C106.865 18.0755 104.754 18.8395 102.45 18.8395C97.6179 18.8395 93.997 15.5211 93.997 11.728C93.997 8.16116 97.2045 5.24868 101.181 5.24868C104.934 5.24868 107.642 7.82874 107.642 10.6222C107.642 13.2408 105.312 15.3648 102.45 15.3648C99.8313 15.3648 97.9829 13.6059 97.9829 11.728C97.9829 10.0425 99.4533 8.72335 101.183 8.72335C102.713 8.72335 103.657 9.71246 103.657 10.6222C103.657 11.4119 103.031 11.8889 102.45 11.8889C102.245 11.8889 102.166 11.8505 102.084 11.805C102.271 11.5915 102.364 11.3139 102.317 11.0246C102.224 10.4659 101.64 10.0799 101.014 10.1627C100.476 10.2338 100.135 10.5581 99.9661 10.7984C99.775 11.0678 99.673 11.3921 99.673 11.728C99.673 13.0681 101.082 13.9349 102.45 13.9349C104.449 13.9359 105.952 12.3882 105.952 10.6222C105.952 8.46092 103.839 6.67751 101.183 6.67751C98.0967 6.67751 95.6884 8.99396 95.6884 11.728C95.6884 14.8259 98.667 17.4095 102.451 17.4095C106.635 17.4095 109.938 14.3209 109.938 10.6211C109.938 6.64368 106.14 3.20282 101.183 3.20282C95.9081 3.20282 91.7039 7.05892 91.7039 11.728C91.7039 16.7132 96.4236 20.8854 102.451 20.8854C105.335 20.8854 107.979 19.9254 109.998 18.3461L108.483 16.8088Z" fill="black"/>
<path d="M9.92166 21.0231H13.4422V3.08911H8.3214C3.17143 3.08911 0.465538 5.43732 0.465538 8.89512C0.465538 11.6562 1.94941 13.2819 4.59714 14.9591L0 21.0231H3.81154L8.93242 14.2366L7.15757 13.1786C5.00447 11.8884 3.95703 10.882 3.95703 8.71447C3.95703 6.80495 5.47003 5.51473 8.3505 5.51473H9.92166V21.0231ZM56.155 20.1457V17.6427C55.0783 18.2879 53.2745 18.8557 51.5869 18.8557C49.0556 18.8557 48.0952 17.7975 47.9499 15.6301H56.3004V14.0044C56.3004 9.48862 54.06 7.78552 50.5976 7.78552C46.3786 7.78552 44.3711 10.6498 44.3711 14.572C44.3711 19.0878 46.8735 21.2811 51.296 21.2811C53.5072 21.2811 55.1365 20.7651 56.155 20.1457ZM77.8022 21.2811C79.4024 21.2811 80.5373 21.0231 81.3809 20.4813V17.9783C80.5081 18.52 79.4607 18.8557 78.0057 18.8557C75.5326 18.8557 74.5144 17.1525 74.5144 14.4688C74.5144 11.6562 75.7655 10.2111 78.035 10.2111C79.3734 10.2111 80.6827 10.624 81.3809 11.0111V8.40483C80.6536 8.04356 79.3734 7.78552 77.6568 7.78552C73.234 7.78552 70.9355 10.5982 70.9355 14.5463C70.9355 18.8813 73.1759 21.2811 77.8022 21.2811ZM24.4406 8.04355V13.1786H19.8142V8.04355H16.3518V21.0231H19.8142V15.6043H24.4406V21.0231H27.903V8.04355H24.4406ZM43.5273 18.5976H41.9852V8.04355H31.8891V9.15315C31.8891 12.3271 31.6563 16.43 30.4343 18.5976H29.3576V23.9906H32.5582V21.0231H40.3267V23.9906H43.5273V18.5976ZM67.2114 21.0231H71.1393L65.582 14.0301L70.47 8.04355H66.9786L62.0905 14.0301V8.04355H58.6282V21.0231H62.0905V14.6495L67.2114 21.0231ZM50.5394 10.2111C52.2561 10.2111 52.7798 11.4755 52.7798 13.1013V13.3593H47.9499C48.0371 11.2949 48.881 10.2111 50.5394 10.2111ZM38.5228 18.5976H33.6348C34.595 16.6364 34.8568 13.1013 34.8568 10.8562V10.4692H38.5228V18.5976Z" fill="white"/>
<path d="M121.763 3.08911V21.0231H133.255V18.5976H125.283V13.2303H131.917V10.8046H125.283V5.51473H133.11V3.08911H121.763ZM149.057 18.5976H147.515V8.04355H137.419V9.15315C137.419 12.3271 137.187 16.43 135.963 18.5976H134.887V23.9906H138.089V21.0231H145.856V23.9906H149.057V18.5976ZM144.053 18.5976H139.165C140.125 16.6364 140.387 13.1013 140.387 10.8562V10.4692H144.053V18.5976ZM161.741 12.1723C161.741 9.02413 159.938 7.83713 156.272 7.83713C153.974 7.83713 152.169 8.48224 151.122 9.02413V11.5788C152.052 10.9595 154.089 10.2885 155.864 10.2885C157.523 10.2885 158.279 10.8046 158.279 12.1981V12.9206H157.727C152.431 12.9206 150.074 14.4688 150.074 17.1008C150.074 19.733 151.878 21.2039 154.555 21.2039C156.592 21.2039 157.464 20.6102 158.134 19.9911H158.279C158.308 20.3265 158.425 20.7651 158.542 21.0231H161.916C161.8 19.9652 161.741 18.9072 161.741 17.8491V12.1723ZM158.279 17.9267C157.842 18.4944 157.029 18.9588 155.807 18.9588C154.352 18.9588 153.624 18.1848 153.624 17.0236C153.624 15.501 154.817 14.9591 157.785 14.9591H158.279V17.9267Z" fill="white"/>
</g>
<path d="M32.5304 27.2727V36H30.9622V28.5852H27.144V36H25.5758V27.2727H32.5304ZM36.2367 36.1321C35.8219 36.1321 35.4483 36.0582 35.1159 35.9105C34.7864 35.7599 34.525 35.5384 34.3319 35.2457C34.1415 34.9531 34.0463 34.5923 34.0463 34.1634C34.0463 33.794 34.1145 33.4886 34.2509 33.2472C34.3873 33.0057 34.5733 32.8125 34.8091 32.6676C35.0449 32.5227 35.3105 32.4134 35.606 32.3395C35.9043 32.2628 36.2125 32.2074 36.5307 32.1733C36.9142 32.1335 37.2253 32.098 37.464 32.0668C37.7026 32.0327 37.8759 31.9815 37.9838 31.9134C38.0946 31.8423 38.15 31.733 38.15 31.5852V31.5597C38.15 31.2386 38.0549 30.9901 37.8645 30.8139C37.6742 30.6378 37.4 30.5497 37.0421 30.5497C36.6642 30.5497 36.3645 30.6321 36.1429 30.7969C35.9242 30.9616 35.7765 31.1562 35.6998 31.3807L34.2594 31.1761C34.373 30.7784 34.5605 30.446 34.8219 30.179C35.0833 29.9091 35.4029 29.7074 35.7807 29.5739C36.1586 29.4375 36.5762 29.3693 37.0336 29.3693C37.3489 29.3693 37.6628 29.4062 37.9753 29.4801C38.2878 29.554 38.5733 29.6761 38.8319 29.8466C39.0904 30.0142 39.2978 30.2429 39.454 30.5327C39.6131 30.8224 39.6926 31.1847 39.6926 31.6193V36H38.2097V35.1009H38.1586C38.0648 35.2827 37.9327 35.4531 37.7623 35.6122C37.5946 35.7685 37.383 35.8949 37.1273 35.9915C36.8745 36.0852 36.5776 36.1321 36.2367 36.1321ZM36.6373 34.9986C36.9469 34.9986 37.2154 34.9375 37.4426 34.8153C37.6699 34.6903 37.8446 34.5256 37.9668 34.321C38.0918 34.1165 38.1543 33.8935 38.1543 33.652V32.8807C38.106 32.9205 38.0236 32.9574 37.9071 32.9915C37.7935 33.0256 37.6657 33.0554 37.5236 33.081C37.3816 33.1065 37.2409 33.1293 37.1017 33.1491C36.9625 33.169 36.8418 33.1861 36.7395 33.2003C36.5094 33.2315 36.3034 33.2827 36.1216 33.3537C35.9398 33.4247 35.7963 33.5241 35.6912 33.652C35.5861 33.777 35.5336 33.9389 35.5336 34.1378C35.5336 34.4219 35.6373 34.6364 35.8446 34.7812C36.052 34.9261 36.3162 34.9986 36.6373 34.9986ZM41.2438 38.4545V29.4545H42.7608V30.5369H42.8503C42.9299 30.3778 43.0421 30.2088 43.187 30.0298C43.3319 29.848 43.5279 29.6932 43.775 29.5653C44.0222 29.4347 44.3375 29.3693 44.7211 29.3693C45.2267 29.3693 45.6827 29.4986 46.089 29.7571C46.498 30.0128 46.8219 30.392 47.0605 30.8949C47.302 31.3949 47.4228 32.0085 47.4228 32.7358C47.4228 33.4545 47.3049 34.0653 47.0691 34.5682C46.8333 35.071 46.5123 35.4545 46.106 35.7188C45.6998 35.983 45.2395 36.1151 44.7253 36.1151C44.3503 36.1151 44.0392 36.0526 43.7921 35.9276C43.5449 35.8026 43.3461 35.652 43.1955 35.4759C43.0478 35.2969 42.9327 35.1278 42.8503 34.9688H42.7864V38.4545H41.2438ZM42.7566 32.7273C42.7566 33.1506 42.8162 33.5213 42.9355 33.8395C43.0577 34.1577 43.2324 34.4062 43.4597 34.5852C43.6898 34.7614 43.9682 34.8494 44.2949 34.8494C44.6358 34.8494 44.9213 34.7585 45.1515 34.5767C45.3816 34.392 45.5549 34.1406 45.6713 33.8224C45.7907 33.5014 45.8503 33.1364 45.8503 32.7273C45.8503 32.321 45.7921 31.9602 45.6756 31.6449C45.5591 31.3295 45.3858 31.0824 45.1557 30.9034C44.9256 30.7244 44.6387 30.6349 44.2949 30.6349C43.9654 30.6349 43.6855 30.7216 43.4554 30.8949C43.2253 31.0682 43.0506 31.3111 42.9313 31.6236C42.8148 31.9361 42.7566 32.304 42.7566 32.7273ZM48.0225 30.7202V29.4545H53.7498V30.7202H51.6319V36H50.1404V30.7202H48.0225ZM59.4739 32.0881V33.3537H55.9881V32.0881H59.4739ZM56.4654 29.4545V36H54.9782V29.4545H56.4654ZM60.4838 29.4545V36H59.0009V29.4545H60.4838ZM64.9423 36.1278C64.286 36.1278 63.7193 35.9915 63.242 35.7188C62.7676 35.4432 62.4025 35.054 62.1468 34.5511C61.8912 34.0455 61.7633 33.4503 61.7633 32.7656C61.7633 32.0923 61.8912 31.5014 62.1468 30.9929C62.4054 30.4815 62.7662 30.0838 63.2292 29.7997C63.6923 29.5128 64.2363 29.3693 64.8613 29.3693C65.2647 29.3693 65.6454 29.4347 66.0034 29.5653C66.3642 29.6932 66.6824 29.892 66.9579 30.1619C67.2363 30.4318 67.4551 30.7756 67.6142 31.1932C67.7733 31.608 67.8528 32.1023 67.8528 32.6761V33.1491H62.4877V32.1094H66.3741C66.3713 31.8139 66.3074 31.5511 66.1824 31.321C66.0574 31.0881 65.8826 30.9048 65.6582 30.7713C65.4366 30.6378 65.1781 30.571 64.8826 30.571C64.5673 30.571 64.2903 30.6477 64.0517 30.8011C63.813 30.9517 63.627 31.1506 63.4934 31.3977C63.3627 31.642 63.296 31.9105 63.2931 32.2031V33.1108C63.2931 33.4915 63.3627 33.8182 63.502 34.0909C63.6412 34.3608 63.8358 34.5682 64.0858 34.7131C64.3358 34.8551 64.6284 34.9261 64.9636 34.9261C65.188 34.9261 65.3912 34.8949 65.573 34.8324C65.7548 34.767 65.9125 34.6719 66.046 34.5469C66.1795 34.4219 66.2804 34.267 66.3485 34.0824L67.7889 34.2443C67.698 34.625 67.5247 34.9574 67.269 35.2415C67.0162 35.5227 66.6923 35.7415 66.2974 35.8977C65.9025 36.0511 65.4508 36.1278 64.9423 36.1278ZM69.1578 38.4545V29.4545H70.6749V30.5369H70.7644C70.8439 30.3778 70.9561 30.2088 71.101 30.0298C71.2459 29.848 71.4419 29.6932 71.6891 29.5653C71.9363 29.4347 72.2516 29.3693 72.6351 29.3693C73.1408 29.3693 73.5968 29.4986 74.003 29.7571C74.4121 30.0128 74.736 30.392 74.9746 30.8949C75.2161 31.3949 75.3368 32.0085 75.3368 32.7358C75.3368 33.4545 75.2189 34.0653 74.9831 34.5682C74.7473 35.071 74.4263 35.4545 74.0201 35.7188C73.6138 35.983 73.1536 36.1151 72.6394 36.1151C72.2644 36.1151 71.9533 36.0526 71.7061 35.9276C71.459 35.8026 71.2601 35.652 71.1096 35.4759C70.9618 35.2969 70.8468 35.1278 70.7644 34.9688H70.7005V38.4545H69.1578ZM70.6706 32.7273C70.6706 33.1506 70.7303 33.5213 70.8496 33.8395C70.9718 34.1577 71.1465 34.4062 71.3738 34.5852C71.6039 34.7614 71.8823 34.8494 72.209 34.8494C72.5499 34.8494 72.8354 34.7585 73.0655 34.5767C73.2956 34.392 73.4689 34.1406 73.5854 33.8224C73.7047 33.5014 73.7644 33.1364 73.7644 32.7273C73.7644 32.321 73.7061 31.9602 73.5897 31.6449C73.4732 31.3295 73.2999 31.0824 73.0698 30.9034C72.8397 30.7244 72.5527 30.6349 72.209 30.6349C71.8794 30.6349 71.5996 30.7216 71.3695 30.8949C71.1394 31.0682 70.9647 31.3111 70.8453 31.6236C70.7289 31.9361 70.6706 32.304 70.6706 32.7273ZM79.1358 38.1051V34.7088H79.7196C79.9157 34.5526 80.0989 34.3324 80.2694 34.0483C80.4398 33.7642 80.5847 33.375 80.704 32.8807C80.8233 32.3864 80.9057 31.7472 80.9512 30.9631L81.1813 27.2727H86.7594V34.7088H87.731V38.0966H86.214V36H80.6529V38.1051H79.1358ZM81.5605 34.7088H85.2424V28.598H82.6046L82.4682 30.9631C82.4313 31.5568 82.3716 32.0881 82.2892 32.5568C82.2069 33.0256 82.1032 33.4389 81.9782 33.7969C81.8532 34.152 81.714 34.456 81.5605 34.7088ZM91.8059 36.1278C91.1667 36.1278 90.6127 35.9872 90.144 35.706C89.6752 35.4247 89.3116 35.0312 89.0531 34.5256C88.7974 34.0199 88.6696 33.429 88.6696 32.7528C88.6696 32.0767 88.7974 31.4844 89.0531 30.9759C89.3116 30.4673 89.6752 30.0724 90.144 29.7912C90.6127 29.5099 91.1667 29.3693 91.8059 29.3693C92.4451 29.3693 92.9991 29.5099 93.4679 29.7912C93.9366 30.0724 94.2988 30.4673 94.5545 30.9759C94.813 31.4844 94.9423 32.0767 94.9423 32.7528C94.9423 33.429 94.813 34.0199 94.5545 34.5256C94.2988 35.0312 93.9366 35.4247 93.4679 35.706C92.9991 35.9872 92.4451 36.1278 91.8059 36.1278ZM91.8145 34.892C92.161 34.892 92.4508 34.7969 92.6838 34.6065C92.9167 34.4134 93.09 34.1548 93.2037 33.831C93.3201 33.5071 93.3784 33.1463 93.3784 32.7486C93.3784 32.348 93.3201 31.9858 93.2037 31.6619C93.09 31.3352 92.9167 31.0753 92.6838 30.8821C92.4508 30.6889 92.161 30.5923 91.8145 30.5923C91.4593 30.5923 91.1639 30.6889 90.9281 30.8821C90.6951 31.0753 90.5204 31.3352 90.4039 31.6619C90.2903 31.9858 90.2335 32.348 90.2335 32.7486C90.2335 33.1463 90.2903 33.5071 90.4039 33.831C90.5204 34.1548 90.6951 34.4134 90.9281 34.6065C91.1639 34.7969 91.4593 34.892 91.8145 34.892ZM99.1067 36.1278C98.4533 36.1278 97.8922 35.9844 97.4235 35.6974C96.9576 35.4105 96.5982 35.0142 96.3453 34.5085C96.0953 34 95.9703 33.4148 95.9703 32.7528C95.9703 32.0881 96.0982 31.5014 96.3539 30.9929C96.6096 30.4815 96.9703 30.0838 97.4363 29.7997C97.905 29.5128 98.459 29.3693 99.0982 29.3693C99.6294 29.3693 100.1 29.4673 100.509 29.6634C100.921 29.8565 101.249 30.1307 101.493 30.4858C101.737 30.8381 101.877 31.25 101.911 31.7216H100.436C100.377 31.4062 100.235 31.1435 100.01 30.9332C99.7885 30.7202 99.4917 30.6136 99.1195 30.6136C98.8042 30.6136 98.5272 30.6989 98.2885 30.8693C98.0499 31.0369 97.8638 31.2784 97.7303 31.5938C97.5996 31.9091 97.5343 32.2869 97.5343 32.7273C97.5343 33.1733 97.5996 33.5568 97.7303 33.8778C97.861 34.196 98.0442 34.4418 98.28 34.6151C98.5186 34.7855 98.7985 34.8707 99.1195 34.8707C99.3468 34.8707 99.5499 34.8281 99.7289 34.7429C99.9107 34.6548 100.063 34.5284 100.185 34.3636C100.307 34.1989 100.391 33.9986 100.436 33.7628H101.911C101.874 34.2259 101.737 34.6364 101.502 34.9943C101.266 35.3494 100.945 35.6278 100.539 35.8295C100.132 36.0284 99.655 36.1278 99.1067 36.1278ZM102.702 30.7202V29.4545H108.43V30.7202H106.312V36H104.82V30.7202H102.702ZM111.272 36.1321C110.857 36.1321 110.483 36.0582 110.151 35.9105C109.822 35.7599 109.56 35.5384 109.367 35.2457C109.177 34.9531 109.081 34.5923 109.081 34.1634C109.081 33.794 109.15 33.4886 109.286 33.2472C109.422 33.0057 109.608 32.8125 109.844 32.6676C110.08 32.5227 110.346 32.4134 110.641 32.3395C110.939 32.2628 111.248 32.2074 111.566 32.1733C111.949 32.1335 112.26 32.098 112.499 32.0668C112.738 32.0327 112.911 31.9815 113.019 31.9134C113.13 31.8423 113.185 31.733 113.185 31.5852V31.5597C113.185 31.2386 113.09 30.9901 112.9 30.8139C112.709 30.6378 112.435 30.5497 112.077 30.5497C111.699 30.5497 111.4 30.6321 111.178 30.7969C110.959 30.9616 110.812 31.1562 110.735 31.3807L109.295 31.1761C109.408 30.7784 109.596 30.446 109.857 30.179C110.118 29.9091 110.438 29.7074 110.816 29.5739C111.194 29.4375 111.611 29.3693 112.069 29.3693C112.384 29.3693 112.698 29.4062 113.01 29.4801C113.323 29.554 113.608 29.6761 113.867 29.8466C114.126 30.0142 114.333 30.2429 114.489 30.5327C114.648 30.8224 114.728 31.1847 114.728 31.6193V36H113.245V35.1009H113.194C113.1 35.2827 112.968 35.4531 112.797 35.6122C112.63 35.7685 112.418 35.8949 112.162 35.9915C111.91 36.0852 111.613 36.1321 111.272 36.1321ZM111.672 34.9986C111.982 34.9986 112.251 34.9375 112.478 34.8153C112.705 34.6903 112.88 34.5256 113.002 34.321C113.127 34.1165 113.189 33.8935 113.189 33.652V32.8807C113.141 32.9205 113.059 32.9574 112.942 32.9915C112.829 33.0256 112.701 33.0554 112.559 33.081C112.417 33.1065 112.276 33.1293 112.137 33.1491C111.998 33.169 111.877 33.1861 111.775 33.2003C111.545 33.2315 111.339 33.2827 111.157 33.3537C110.975 33.4247 110.831 33.5241 110.726 33.652C110.621 33.777 110.569 33.9389 110.569 34.1378C110.569 34.4219 110.672 34.6364 110.88 34.7812C111.087 34.9261 111.351 34.9986 111.672 34.9986ZM116.279 36V29.4545H119.028C119.803 29.4545 120.415 29.6094 120.864 29.919C121.316 30.2287 121.542 30.6605 121.542 31.2145C121.542 31.581 121.414 31.8807 121.158 32.1136C120.905 32.3437 120.56 32.4986 120.123 32.5781C120.466 32.6065 120.768 32.6932 121.026 32.8381C121.287 32.983 121.492 33.1733 121.64 33.4091C121.787 33.6449 121.861 33.9162 121.861 34.223C121.861 34.5838 121.766 34.8977 121.576 35.1648C121.388 35.429 121.114 35.6349 120.753 35.7827C120.395 35.9276 119.961 36 119.449 36H116.279ZM117.724 34.7855H119.449C119.733 34.7855 119.956 34.7187 120.118 34.5852C120.28 34.4489 120.361 34.2642 120.361 34.0312C120.361 33.7614 120.28 33.5497 120.118 33.3963C119.956 33.2401 119.733 33.1619 119.449 33.1619H117.724V34.7855ZM117.724 32.1648H119.057C119.268 32.1648 119.448 32.1349 119.599 32.0753C119.749 32.0128 119.864 31.9261 119.944 31.8153C120.023 31.7017 120.063 31.5668 120.063 31.4105C120.063 31.1861 119.971 31.0099 119.786 30.8821C119.604 30.7543 119.351 30.6903 119.028 30.6903H117.724V32.1648ZM123.134 36V29.4545H124.677V32.0966H125.24L127.208 29.4545H129.066L126.642 32.6676L129.092 36H127.225L125.431 33.5327H124.677V36H123.134ZM131.454 33.9119L134.074 29.4545H135.66V36H134.168V31.5384L131.556 36H129.966V29.4545H131.454V33.9119Z" fill="white"/>
<defs>
<clipPath id="clip0_2_12">
<rect width="162" height="24" fill="white"/>
</clipPath>
</defs>
</svg>
