<svg width="50" height="51" viewBox="0 0 50 51" fill="none" xmlns="http://www.w3.org/2000/svg">
<path d="M24.6322 50.4014C38.2412 50.4014 49.2735 39.2612 49.2735 25.5191C49.2735 11.7769 38.2412 0.636719 24.6322 0.636719C11.0233 0.636719 -0.00897217 11.7769 -0.00897217 25.5191C-0.00897217 39.2612 11.0233 50.4014 24.6322 50.4014Z" fill="#2AABEE" fill-opacity="0.87"/>
<path fill-rule="evenodd" clip-rule="evenodd" d="M11.1217 25.2478C18.2991 22.0697 23.0968 20.0155 25.5149 19.0078C32.3469 16.1398 33.767 15.6359 34.6882 15.5972C34.8801 15.5972 35.3407 15.6359 35.6478 15.8685C35.878 16.0623 35.9548 16.3336 35.9932 16.5274C36.0316 16.7211 36.07 17.1475 36.0316 17.4963C35.6478 21.4108 34.0741 30.9839 33.2297 35.3635C32.8842 37.2239 32.1934 37.844 31.5409 37.9215C30.1207 38.0378 29.0077 36.9526 27.6259 36.0612C25.4765 34.6271 24.2483 33.7357 22.1373 32.3404C19.7192 30.7126 21.2929 29.8212 22.6746 28.3872C23.0201 27.9996 29.3531 22.2247 29.4683 21.6821C29.4683 21.6046 29.5066 21.372 29.3531 21.2558C29.1996 21.1395 29.0077 21.1783 28.8541 21.217C28.6238 21.2558 25.1695 23.5812 18.4526 28.1546C17.4547 28.8523 16.5719 29.1623 15.7659 29.1623C14.8831 29.1623 13.1943 28.6585 11.9277 28.2321C10.3924 27.7283 9.16419 27.457 9.27934 26.6043C9.3561 26.178 9.97021 25.7129 11.1217 25.2478Z" fill="white"/>
</svg>
