<svg width="1920" height="1792" viewBox="0 0 1920 1792" fill="none" xmlns="http://www.w3.org/2000/svg">
<path d="M0 70C30.3187 121.314 120.283 193.155 237.588 70C354.894 -53.1546 452.943 18.6856 487.304 70C527.361 116.665 631.621 181.995 728.2 70C769.543 21.1765 874.281 -47.1763 962.481 70C1008.97 116.665 1126.42 181.995 1224.32 70C1262.73 25.3282 1363.68 -37.2123 1460.26 70C1499.21 117.163 1601.6 183.19 1699.5 70C1740.84 27.321 1842.83 -32.4296 1920 70" stroke="#FFD700" stroke-opacity="0.43" stroke-width="4"/>
<path d="M0 306C30.3187 357.314 120.283 429.155 237.588 306C354.894 182.845 452.943 254.686 487.304 306C527.361 352.665 631.621 417.995 728.2 306C769.543 257.177 874.281 188.824 962.481 306C1008.97 352.665 1126.42 417.995 1224.32 306C1262.73 261.328 1363.68 198.788 1460.26 306C1499.21 353.163 1601.6 419.19 1699.5 306C1740.84 263.321 1842.83 203.57 1920 306" stroke="#FFD700" stroke-opacity="0.43" stroke-width="4"/>
<path d="M0 542C30.3187 593.314 120.283 665.155 237.588 542C354.894 418.845 452.943 490.686 487.304 542C527.361 588.665 631.621 653.995 728.2 542C769.543 493.177 874.281 424.824 962.481 542C1008.97 588.665 1126.42 653.995 1224.32 542C1262.73 497.328 1363.68 434.788 1460.26 542C1499.21 589.163 1601.6 655.19 1699.5 542C1740.84 499.321 1842.83 439.57 1920 542" stroke="#FFD700" stroke-opacity="0.43" stroke-width="4"/>
<path d="M0 1250C30.3187 1301.31 120.283 1373.15 237.588 1250C354.894 1126.85 452.943 1198.69 487.304 1250C527.361 1296.66 631.621 1361.99 728.2 1250C769.543 1201.18 874.281 1132.82 962.481 1250C1008.97 1296.66 1126.42 1361.99 1224.32 1250C1262.73 1205.33 1363.68 1142.79 1460.26 1250C1499.21 1297.16 1601.6 1363.19 1699.5 1250C1740.84 1207.32 1842.83 1147.57 1920 1250" stroke="#FFD700" stroke-opacity="0.43" stroke-width="4"/>
<path d="M0 778C30.3187 829.314 120.283 901.155 237.588 778C354.894 654.845 452.943 726.686 487.304 778C527.361 824.665 631.621 889.995 728.2 778C769.543 729.177 874.281 660.824 962.481 778C1008.97 824.665 1126.42 889.995 1224.32 778C1262.73 733.328 1363.68 670.788 1460.26 778C1499.21 825.163 1601.6 891.19 1699.5 778C1740.84 735.321 1842.83 675.57 1920 778" stroke="#FFD700" stroke-opacity="0.43" stroke-width="4"/>
<path d="M0 1486C30.3187 1537.31 120.283 1609.15 237.588 1486C354.894 1362.85 452.943 1434.69 487.304 1486C527.361 1532.66 631.621 1597.99 728.2 1486C769.543 1437.18 874.281 1368.82 962.481 1486C1008.97 1532.66 1126.42 1597.99 1224.32 1486C1262.73 1441.33 1363.68 1378.79 1460.26 1486C1499.21 1533.16 1601.6 1599.19 1699.5 1486C1740.84 1443.32 1842.83 1383.57 1920 1486" stroke="#FFD700" stroke-opacity="0.43" stroke-width="4"/>
<path d="M0 1014C30.3187 1065.31 120.283 1137.15 237.588 1014C354.894 890.845 452.943 962.686 487.304 1014C527.361 1060.66 631.621 1125.99 728.2 1014C769.543 965.177 874.281 896.824 962.481 1014C1008.97 1060.66 1126.42 1125.99 1224.32 1014C1262.73 969.328 1363.68 906.788 1460.26 1014C1499.21 1061.16 1601.6 1127.19 1699.5 1014C1740.84 971.321 1842.83 911.57 1920 1014" stroke="#FFD700" stroke-opacity="0.43" stroke-width="4"/>
<path d="M0 1722C30.3187 1773.31 120.283 1845.15 237.588 1722C354.894 1598.85 452.943 1670.69 487.304 1722C527.361 1768.66 631.621 1833.99 728.2 1722C769.543 1673.18 874.281 1604.82 962.481 1722C1008.97 1768.66 1126.42 1833.99 1224.32 1722C1262.73 1677.33 1363.68 1614.79 1460.26 1722C1499.21 1769.16 1601.6 1835.19 1699.5 1722C1740.84 1679.32 1842.83 1619.57 1920 1722" stroke="#FFD700" stroke-opacity="0.43" stroke-width="4"/>
</svg>
